# xmcd CD database file
#
# Track frame offsets:
#	150
#	15620
#	32640
#	47150
#	63030
#	81522
#	99475
#	117070
#	133672
#	150492
#	170702
#
# Disc length: 2474 seconds
#
# Revision: 0
# Processed by: cddbd v1.5PL3 Copyright (c) Steve Scherf et al.
# Submitted via: CDex 1.51
#
DISCID=8609a80b
DTITLE=藤井一子 - バンクショット
DYEAR=1987
DGENRE=J-Pop
TTITLE0=バンクショット
TTITLE1=Bad Girl
TTITLE2=初恋進化論
TTITLE3=わがままマーメイド
TTITLE4=夏を止めて
TTITLE5=チェック・ポイント
TTITLE6=メルティング・ポイント
TTITLE7=モーニング・コール
TTITLE8=シンデレラ・コンプレックス
TTITLE9=エトワール
TTITLE10=夢であなた
EXTD=YEAR: 1987
EXTT0=
EXTT1=
EXTT2=
EXTT3=
EXTT4=
EXTT5=
EXTT6=
EXTT7=
EXTT8=
EXTT9=
EXTT10=
PLAYORDER=
